<svg width="22" height="27" viewBox="0 0 22 27" fill="none" xmlns="http://www.w3.org/2000/svg">
<path d="M21.8289 19.5414L10.9144 26.0268L-0.000120966 19.5414L-0.00012207 6.50334L10.9144 0.0557251L21.8289 6.57895V19.5414Z" fill="#909093"/>
<path d="M21.8288 19.5413L10.9143 26.0267L-0.000243036 19.5413L-0.000244141 6.50323L10.9143 12.9845L21.8288 6.57884V19.5413Z" fill="#7E8083"/>
<path d="M21.8289 19.5412L10.9144 26.0267V12.9844L21.8289 6.5788V19.5412Z" fill="#37393E"/>
<path d="M21.8289 19.5325L20.4646 20.3432L19.7824 20.7485V10.594L10.9144 15.8287V15.4211V14.6059V12.9757L21.8289 6.57919V19.5325Z" fill="#4E5055"/>
<path d="M-0.000244141 19.5534L1.36407 20.3662L2.04623 20.7725V10.5925L10.9143 15.8403V15.4317V14.6146V12.9802L-0.000244141 6.50174V19.5534Z" fill="#A9ABAF"/>
</svg>
