<svg width="18" height="18" viewBox="0 0 18 18" fill="none" xmlns="http://www.w3.org/2000/svg">
<path d="M1.40625 4.9498C1.40625 4.05089 2.00597 3.26241 2.87225 3.02241L3.85369 2.75049C4.27309 2.6343 4.64314 2.38447 4.9077 2.03892L5.41184 1.38045C6.01795 0.588801 7.11456 0.364477 7.98285 0.85452L8.04735 0.89092C8.63862 1.22462 9.36138 1.22462 9.95265 0.89092C10.8411 0.389521 11.9661 0.662581 12.5258 1.51547L12.7923 1.92161C13.0666 2.33959 13.4875 2.63969 13.9721 2.76275L15.0861 3.04567C15.9729 3.27088 16.5938 4.06917 16.5938 4.98413V6.34599C16.5938 6.68137 16.6781 7.01136 16.839 7.30561L17.3523 8.24419C17.7437 8.95989 17.6612 9.84158 17.1438 10.4723L17.0475 10.5898C16.7541 10.9474 16.5938 11.3957 16.5938 11.8582V13.1371C16.5938 13.9945 16.0473 14.7565 15.2352 15.0315L13.8134 15.5129C13.4263 15.644 13.0886 15.8906 12.8459 16.2194L12.4908 16.7003C11.931 17.4585 10.9178 17.723 10.0588 17.3352L9.823 17.2287C9.29976 16.9925 8.70024 16.9925 8.177 17.2287L7.8314 17.3848C7.02338 17.7496 6.07161 17.5389 5.49302 16.8672L4.83739 16.106C4.6161 15.8491 4.33312 15.6526 4.01505 15.5351L2.71321 15.0542C1.9278 14.7641 1.40625 14.0154 1.40625 13.1781V11.7088C1.40625 11.3388 1.30359 10.976 1.10968 10.6608L0.689897 9.9785C0.27125 9.29803 0.297739 8.43369 0.75727 7.78014L1.04231 7.37475C1.27915 7.03791 1.40625 6.63617 1.40625 6.2244V4.9498Z" fill="white"/>
<path fill-rule="evenodd" clip-rule="evenodd" d="M9 3.96047L12.2 6.36047V11.6395L9 14.0395L5.8 11.6395V6.36047L9 3.96047ZM13 6V12L9 15L5 12V6L9 3L13 6ZM9 6.39276L7.5095 7.69637V10.3036L9 11.6072L10.4905 10.3036V7.69637L9 6.39276Z" fill="#FF80FA"/>
</svg>
